<?xml version="1.0" encoding="UTF-8"?>
<!DOCTYPE svg PUBLIC "-//W3C//DTD SVG 1.1//EN" "http://www.w3.org/Graphics/SVG/1.1/DTD/svg11.dtd">
<!-- Creator: CorelDRAW 2021 (64-Bit) -->
<svg xmlns="http://www.w3.org/2000/svg" xml:space="preserve" width="1in" height="1in" version="1.1" style="shape-rendering:geometricPrecision; text-rendering:geometricPrecision; image-rendering:optimizeQuality; fill-rule:evenodd; clip-rule:evenodd"
viewBox="0 0 301.21 301.21"
 xmlns:xlink="http://www.w3.org/1999/xlink"
 xmlns:xodm="http://www.corel.com/coreldraw/odm/2003">
 <defs>
  <style type="text/css">
   <![CDATA[
    .fil0 {fill:#0A0A0A}
    .fil1 {fill:#0A0A0A;fill-rule:nonzero}
   ]]>
  </style>
 </defs>
 <g id="Layer_x0020_1">
  <metadata id="CorelCorpID_0Corel-Layer"/>
  <g id="_1928239130080">
   <path class="fil0" d="M43.42 0l214.38 0c23.88,0 43.42,19.54 43.42,43.42l0 214.38c0,23.88 -19.54,43.42 -43.42,43.42l-214.38 0c-23.88,0 -43.42,-19.54 -43.42,-43.42l0 -214.38c0,-23.88 19.54,-43.42 43.42,-43.42zm214.38 16.73l-214.38 0c-7.32,0 -13.99,3.01 -18.83,7.85 -4.84,4.84 -7.85,11.51 -7.85,18.83l0 214.38c0,7.32 3.01,13.99 7.85,18.83 4.84,4.84 11.51,7.85 18.83,7.85l214.38 0c7.32,0 13.99,-3.01 18.83,-7.85 4.84,-4.84 7.85,-11.51 7.85,-18.83l0 -214.38c0,-7.32 -3.01,-13.99 -7.85,-18.83 -4.84,-4.84 -11.51,-7.85 -18.83,-7.85z"/>
   <path class="fil1" d="M129.45 161.07c27.85,0 44.63,-13.97 44.63,-37.01 0,-17.44 -11.96,-30.04 -29.77,-32.03l0 -0.74c13.07,-2.17 23.32,-14.62 23.32,-28.49 0,-19.79 -15.24,-32.68 -38.47,-32.68l-52.25 0 0 130.95 52.53 0zm-32.21 -114.32l27.04 0c14.71,0 23.04,6.69 23.04,18.86 0,12.98 -9.69,20.22 -27.32,20.22l-22.76 0 0 -39.09zm0 97.72l0 -43.11 26.85 0c19.23,0 29.21,7.28 29.21,21.43 0,14.15 -9.69,21.68 -28.03,21.68l-28.03 0z"/>
   <path id="_1" class="fil1" d="M189.23 161.07l19.61 0 0 -55.63c0,-14.77 8.89,-24.59 22.7,-24.59 13.6,0 20.32,7.9 20.32,22.24l0 57.98 19.7 0 0 -61.79c0,-21.87 -12.08,-35.31 -33.14,-35.31 -14.68,0 -24.84,6.72 -30.01,17.62l-0.46 0 0 -15.98 -18.71 0 0 95.46z"/>
  </g>
 </g>
</svg>
