<?xml version="1.0" encoding="UTF-8"?>
<!DOCTYPE svg PUBLIC "-//W3C//DTD SVG 1.1//EN" "http://www.w3.org/Graphics/SVG/1.1/DTD/svg11.dtd">
<!-- Creator: CorelDRAW 2021 (64-Bit) -->
<svg xmlns="http://www.w3.org/2000/svg" xml:space="preserve" width="1in" height="1in" version="1.1" style="shape-rendering:geometricPrecision; text-rendering:geometricPrecision; image-rendering:optimizeQuality; fill-rule:evenodd; clip-rule:evenodd"
viewBox="0 0 172.38 172.38"
 xmlns:xlink="http://www.w3.org/1999/xlink"
 xmlns:xodm="http://www.corel.com/coreldraw/odm/2003">
 <defs>
  <style type="text/css">
   <![CDATA[
    .fil0 {fill:#D4D4D8}
    .fil1 {fill:#1A1A1A;fill-rule:nonzero}
   ]]>
  </style>
 </defs>
 <g id="Layer_x0020_1">
  <metadata id="CorelCorpID_0Corel-Layer"/>
  <g id="_1892830436992">
   <rect class="fil0" x="-0" y="-0" width="172.38" height="172.38" rx="24.85" ry="24.85"/>
   <polygon class="fil1" points="69.81,92.18 69.81,36.98 70.29,36.98 109.12,92.18 119.62,92.18 119.62,17.24 108.29,17.24 108.29,72.5 107.88,72.5 69.03,17.24 58.5,17.24 58.5,92.18 "/>
   <path id="_1" class="fil1" d="M135.36 24.61l0 12.94 -7.94 0 0 8.88 7.94 0 0 31.36c0,10.55 4.31,14.76 15.37,14.76 2.5,0 4.98,-0.21 6.24,-0.53l0 -8.88c-0.73,0.16 -2.55,0.27 -3.69,0.27 -4.57,0 -6.65,-2.13 -6.65,-6.86l0 -30.11 10.39 0 0 -8.88 -10.39 0 0 -12.94 -11.27 0z"/>
  </g>
 </g>
</svg>
