<?xml version="1.0" encoding="UTF-8"?>
<!DOCTYPE svg PUBLIC "-//W3C//DTD SVG 1.1//EN" "http://www.w3.org/Graphics/SVG/1.1/DTD/svg11.dtd">
<!-- Creator: CorelDRAW 2021 (64-Bit) -->
<svg xmlns="http://www.w3.org/2000/svg" xml:space="preserve" width="1in" height="1in" version="1.1" style="shape-rendering:geometricPrecision; text-rendering:geometricPrecision; image-rendering:optimizeQuality; fill-rule:evenodd; clip-rule:evenodd"
viewBox="0 0 293.84 293.84"
 xmlns:xlink="http://www.w3.org/1999/xlink"
 xmlns:xodm="http://www.corel.com/coreldraw/odm/2003">
 <defs>
  <style type="text/css">
   <![CDATA[
    .fil0 {fill:crimson}
    .fil1 {fill:#FAFAFA;fill-rule:nonzero}
   ]]>
  </style>
 </defs>
 <g id="Layer_x0020_1">
  <metadata id="CorelCorpID_0Corel-Layer"/>
  <g id="_1892831148112">
   <rect class="fil0" x="-0" y="-0" width="293.84" height="293.84" rx="42.35" ry="42.35"/>
   <path class="fil1" d="M154.87 46.03l27.25 0c15.32,0 24.62,8.67 24.62,22.93 0,14.59 -8.76,23.02 -24.08,23.02l-27.8 0 0 -45.96zm0 61.97l27.25 0 0 0 26.05 49.13 22.81 0 -28.58 -52.24c15.59,-5.2 24.78,-19.19 24.78,-36.47 0,-23.81 -16.38,-39.04 -42.66,-39.04l-49.46 0 0 127.75 19.82 0 0 -49.13z"/>
   <path id="_1" class="fil1" d="M244.63 157.13l19.13 0 0 -93.12 -19.13 0 0 93.12zm9.55 -108.17c6.13,0 11,-4.95 11,-10.97 0,-6.13 -4.86,-11 -11,-11 -6.1,0 -11.06,4.86 -11.06,11 0,6.01 4.95,10.97 11.06,10.97z"/>
  </g>
 </g>
</svg>
