<?xml version="1.0" encoding="UTF-8"?>
<!DOCTYPE svg PUBLIC "-//W3C//DTD SVG 1.1//EN" "http://www.w3.org/Graphics/SVG/1.1/DTD/svg11.dtd">
<!-- Creator: CorelDRAW 2021 (64-Bit) -->
<svg xmlns="http://www.w3.org/2000/svg" xml:space="preserve" width="1in" height="1in" version="1.1" style="shape-rendering:geometricPrecision; text-rendering:geometricPrecision; image-rendering:optimizeQuality; fill-rule:evenodd; clip-rule:evenodd"
viewBox="0 0 122.02 122.02"
 xmlns:xlink="http://www.w3.org/1999/xlink"
 xmlns:xodm="http://www.corel.com/coreldraw/odm/2003">
 <defs>
  <style type="text/css">
   <![CDATA[
    .fil0 {fill:#663399}
    .fil1 {fill:#FAFAFA;fill-rule:nonzero}
   ]]>
  </style>
 </defs>
 <g id="Layer_x0020_1">
  <metadata id="CorelCorpID_0Corel-Layer"/>
  <g id="_1892830431520">
   <rect class="fil0" x="-0" y="-0" width="122.02" height="122.02" rx="17.59" ry="17.59"/>
   <polygon class="fil1" points="61.78,65.25 61.78,19.3 77.99,19.3 77.99,12.2 37.3,12.2 37.3,19.3 53.53,19.3 53.53,65.25 "/>
   <path id="_1" class="fil1" d="M109.82 26.58l-7.94 0 0 22.53c0,6.02 -3.45,10 -9.18,10 -5.48,0 -8.27,-3.16 -8.27,-9.05l0 -23.49 -7.94 0 0 25.03c0,8.86 5.14,14.34 13.56,14.34 5.92,0 9.85,-2.61 11.98,-7.24l0.19 0 0 6.54 7.6 0 0 -38.67z"/>
  </g>
 </g>
</svg>
