<?xml version="1.0" encoding="UTF-8"?>
<!DOCTYPE svg PUBLIC "-//W3C//DTD SVG 1.1//EN" "http://www.w3.org/Graphics/SVG/1.1/DTD/svg11.dtd">
<!-- Creator: CorelDRAW 2021 (64-Bit) -->
<svg xmlns="http://www.w3.org/2000/svg" xml:space="preserve" width="1in" height="1in" version="1.1" style="shape-rendering:geometricPrecision; text-rendering:geometricPrecision; image-rendering:optimizeQuality; fill-rule:evenodd; clip-rule:evenodd"
viewBox="0 0 933.4 933.4"
 xmlns:xlink="http://www.w3.org/1999/xlink"
 xmlns:xodm="http://www.corel.com/coreldraw/odm/2003">
 <defs>
  <style type="text/css">
   <![CDATA[
    .fil0 {fill:#D4D4D8}
    .fil1 {fill:#1A1A1A;fill-rule:nonzero}
   ]]>
  </style>
 </defs>
 <g id="Layer_x0020_1">
  <metadata id="CorelCorpID_0Corel-Layer"/>
  <g id="_2999092827296">
   <rect class="fil0" x="-0" y="-0" width="933.4" height="933.4" rx="134.54" ry="134.54"/>
   <polygon class="fil1" points="315.86,188.45 318.64,188.45 406.37,494.44 465.68,494.44 575.39,88.63 509.84,88.63 434.78,406.42 432.57,406.42 346.48,88.63 288.03,88.63 202.22,406.42 200.01,406.42 124.96,88.63 59.4,88.63 168.82,494.44 228.42,494.44 "/>
   <polygon id="_1" class="fil1" points="681.45,325.42 680.87,325.42 680.87,88.63 620.12,88.63 620.12,494.44 680.87,494.44 680.87,388.19 706.12,363.13 806.51,494.44 877.15,494.44 749.79,325.99 872.35,198.63 800.94,198.63 "/>
  </g>
 </g>
</svg>
