<?xml version="1.0" encoding="UTF-8"?>
<!DOCTYPE svg PUBLIC "-//W3C//DTD SVG 1.1//EN" "http://www.w3.org/Graphics/SVG/1.1/DTD/svg11.dtd">
<!-- Creator: CorelDRAW 2021 (64-Bit) -->
<svg xmlns="http://www.w3.org/2000/svg" xml:space="preserve" width="1in" height="1in" version="1.1" style="shape-rendering:geometricPrecision; text-rendering:geometricPrecision; image-rendering:optimizeQuality; fill-rule:evenodd; clip-rule:evenodd"
viewBox="0 0 933.4 933.4"
 xmlns:xlink="http://www.w3.org/1999/xlink"
 xmlns:xodm="http://www.corel.com/coreldraw/odm/2003">
 <defs>
  <style type="text/css">
   <![CDATA[
    .fil0 {fill:#0A0A0A}
    .fil1 {fill:#0A0A0A;fill-rule:nonzero}
   ]]>
  </style>
 </defs>
 <g id="Layer_x0020_1">
  <metadata id="CorelCorpID_0Corel-Layer"/>
  <g id="_2999093241040">
   <path class="fil0" d="M134.54 0l664.33 0c74,0 134.54,60.54 134.54,134.54l0 664.33c0,74 -60.54,134.54 -134.54,134.54l-664.33 0c-74,0 -134.54,-60.54 -134.54,-134.54l0 -664.33c0,-74 60.54,-134.54 134.54,-134.54zm664.33 51.86l-664.33 0c-22.68,0 -43.35,9.32 -58.36,24.33 -15.01,15.01 -24.33,35.67 -24.33,58.36l0 664.33c0,22.68 9.32,43.35 24.33,58.36 15.01,15 35.67,24.33 58.36,24.33l664.33 0c22.68,0 43.35,-9.32 58.36,-24.33 15.01,-15.01 24.33,-35.68 24.33,-58.36l0 -664.33c0,-22.68 -9.32,-43.35 -24.33,-58.36 -15.01,-15.01 -35.67,-24.33 -58.36,-24.33z"/>
   <polygon class="fil1" points="307.57,193.16 310.35,193.16 398.08,499.15 457.39,499.15 567.1,93.34 501.54,93.34 426.49,411.14 424.28,411.14 338.19,93.34 279.73,93.34 193.93,411.14 191.72,411.14 116.66,93.34 51.11,93.34 160.53,499.15 220.13,499.15 "/>
   <polygon id="_1" class="fil1" points="673.15,330.13 672.58,330.13 672.58,93.34 611.82,93.34 611.82,499.15 672.58,499.15 672.58,392.9 697.82,367.85 798.22,499.15 868.86,499.15 741.49,330.7 864.06,203.34 792.65,203.34 "/>
  </g>
 </g>
</svg>
