<?xml version="1.0" encoding="UTF-8"?>
<!DOCTYPE svg PUBLIC "-//W3C//DTD SVG 1.1//EN" "http://www.w3.org/Graphics/SVG/1.1/DTD/svg11.dtd">
<!-- Creator: CorelDRAW 2021 (64-Bit) -->
<svg xmlns="http://www.w3.org/2000/svg" xml:space="preserve" width="1in" height="1in" version="1.1" style="shape-rendering:geometricPrecision; text-rendering:geometricPrecision; image-rendering:optimizeQuality; fill-rule:evenodd; clip-rule:evenodd"
viewBox="0 0 94.15 94.15"
 xmlns:xlink="http://www.w3.org/1999/xlink"
 xmlns:xodm="http://www.corel.com/coreldraw/odm/2003">
 <defs>
  <style type="text/css">
   <![CDATA[
    .fil0 {fill:#F59E0B}
    .fil1 {fill:#0A0A0A;fill-rule:nonzero}
   ]]>
  </style>
 </defs>
 <g id="Layer_x0020_1">
  <metadata id="CorelCorpID_0Corel-Layer"/>
  <g id="_1892902071600">
   <rect class="fil0" x="-0" y="-0" width="94.15" height="94.15" rx="13.57" ry="13.57"/>
   <path class="fil1" d="M25.6 9.42l0 40.93 6.35 0 0 -13.98 8.79 0c8.03,0 13.67,-5.51 13.67,-13.5 0,-7.97 -5.53,-13.45 -13.47,-13.45l-15.34 0zm6.35 5.36l7.32 0c5.5,0 8.65,2.95 8.65,8.11 0,5.16 -3.15,8.14 -8.67,8.14l-7.29 0 0 -16.25z"/>
   <path id="_1" class="fil1" d="M70.67 45.38c-4.7,0 -7.77,-3.79 -7.77,-10.04 0,-6.21 3.07,-10.16 7.77,-10.16 4.79,0 7.94,4.03 7.94,10.16 0,6.16 -3.15,10.04 -7.94,10.04zm0.06 16.2c8.51,0 14.01,-4.65 14.01,-11.77l0 -29.29 -5.95 0 0 5.1 -0.12 0c-1.81,-3.46 -5.28,-5.59 -9.5,-5.59 -7.66,0 -12.54,5.91 -12.54,15.29 0,9.3 4.91,15.15 12.39,15.15 4.26,0 7.77,-2.13 9.45,-5.36l0.11 0 0 4.91c0,4.09 -2.84,6.81 -7.63,6.81 -3.49,0 -6.21,-1.65 -7.09,-4.14l-6.16 0c0.76,5.16 5.98,8.91 13.02,8.91z"/>
  </g>
 </g>
</svg>
